HIERARCHY
ROOT hip
{
  OFFSET 0 0 0
  CHANNELS 6 Xposition Yposition Zposition Zrotation Yrotation Xrotation
  JOINT abdomen
  {
    OFFSET 0 20.6881 -0.73152
    CHANNELS 3 Zrotation Xrotation Yrotation
    JOINT chest
    {
      OFFSET 0 11.7043 -0.48768
      CHANNELS 3 Zrotation Xrotation Yrotation
      JOINT neck
      {
        OFFSET 0 22.1894 -2.19456
        CHANNELS 3 Zrotation Xrotation Yrotation
        JOINT head
        {
          OFFSET -0.24384 7.07133 1.2192
          CHANNELS 3 Zrotation Xrotation Yrotation
          JOINT leftEye
          {
            OFFSET 4.14528 8.04674 8.04672
            CHANNELS 3 Zrotation Xrotation Yrotation
            End Site
            {
              OFFSET 1 0 0
            }
          }
          JOINT rightEye
          {
            OFFSET -3.6576 8.04674 8.04672
            CHANNELS 3 Zrotation Xrotation Yrotation
            End Site
            {
              OFFSET 1 0 0
            }
          }
        }
      }
      JOINT rCollar
      {
        OFFSET -2.68224 19.2634 -4.8768
        CHANNELS 3 Zrotation Xrotation Yrotation
        JOINT rShldr
        {
          OFFSET -8.77824 -1.95073 1.46304
          CHANNELS 3 Zrotation Xrotation Yrotation
          JOINT rForeArm
          {
            OFFSET -28.1742 -1.7115 0.48768
            CHANNELS 3 Zrotation Xrotation Yrotation
            JOINT rHand
            {
              OFFSET -22.5879 0.773209 7.07136
              CHANNELS 3 Zrotation Xrotation Yrotation
              JOINT rThumb1
              {
                OFFSET -1.2192 -0.487915 3.41376
                CHANNELS 3 Zrotation Xrotation Yrotation
                JOINT rThumb2
                {
                  OFFSET -3.37035 -0.52449 3.41376
                  CHANNELS 3 Zrotation Xrotation Yrotation
                  End Site
                  {
                    OFFSET -1.78271 -1.18214 1.43049
                  }
                }
              }
              JOINT rIndex1
              {
                OFFSET -7.75947 0.938293 5.60832
                CHANNELS 3 Zrotation Xrotation Yrotation
                JOINT rIndex2
                {
                  OFFSET -2.54057 -0.884171 1.56538
                  CHANNELS 3 Zrotation Xrotation Yrotation
                  End Site
                  {
                    OFFSET -1.62519 -0.234802 1.16502
                  }
                }
              }
              JOINT rMid1
              {
                OFFSET -8.24714 1.18213 3.41376
                CHANNELS 3 Zrotation Xrotation Yrotation
                JOINT rMid2
                {
                  OFFSET -3.10165 -0.590103 1.0647
                  CHANNELS 3 Zrotation Xrotation Yrotation
                  End Site
                  {
                    OFFSET -2.48547 -0.328903 0.83742
                  }
                }
              }
              JOINT rRing1
              {
                OFFSET -8.82822 0.546677 1.51678
                CHANNELS 3 Zrotation Xrotation Yrotation
                JOINT rRing2
                {
                  OFFSET -2.60934 -0.819778 -0.0198488
                  CHANNELS 3 Zrotation Xrotation Yrotation
                  End Site
                  {
                    OFFSET -2.33842 -0.294052 0.168128
                  }
                }
              }
              JOINT rPinky1
              {
                OFFSET -8.27202 -0.0477905 -0.4584
                CHANNELS 3 Zrotation Xrotation Yrotation
                JOINT rPinky2
                {
                  OFFSET -1.82734 -0.647385 -0.700984
                  CHANNELS 3 Zrotation Xrotation Yrotation
                  End Site
                  {
                    OFFSET -1.69225 -0.51767 -0.607171
                  }
                }
              }
            }
          }
        }
      }
      JOINT lCollar
      {
        OFFSET 2.68224 19.2634 -4.8768
        CHANNELS 3 Zrotation Xrotation Yrotation
        JOINT lShldr
        {
          OFFSET 8.77824 -1.95073 1.46304
          CHANNELS 3 Zrotation Xrotation Yrotation
          JOINT lForeArm
          {
            OFFSET 28.1742 -1.7115 0.48768
            CHANNELS 3 Zrotation Xrotation Yrotation
            JOINT lHand
            {
              OFFSET 22.5879 0.773209 7.07136
              CHANNELS 3 Zrotation Xrotation Yrotation
              JOINT lThumb1
              {
                OFFSET 1.2192 -0.487915 3.41376
                CHANNELS 3 Zrotation Xrotation Yrotation
                JOINT lThumb2
                {
                  OFFSET 3.37035 -0.52449 3.41376
                  CHANNELS 3 Zrotation Xrotation Yrotation
                  End Site
                  {
                    OFFSET 1.78271 -1.18214 1.43049
                  }
                }
              }
              JOINT lIndex1
              {
                OFFSET 7.75947 0.938293 5.60832
                CHANNELS 3 Zrotation Xrotation Yrotation
                JOINT lIndex2
                {
                  OFFSET 2.54057 -0.884171 1.56538
                  CHANNELS 3 Zrotation Xrotation Yrotation
                  End Site
                  {
                    OFFSET 1.62519 -0.234802 1.16502
                  }
                }
              }
              JOINT lMid1
              {
                OFFSET 8.24714 1.18213 3.41376
                CHANNELS 3 Zrotation Xrotation Yrotation
                JOINT lMid2
                {
                  OFFSET 3.10165 -0.590103 1.0647
                  CHANNELS 3 Zrotation Xrotation Yrotation
                  End Site
                  {
                    OFFSET 2.48547 -0.328903 0.83742
                  }
                }
              }
              JOINT lRing1
              {
                OFFSET 8.82822 0.546677 1.51678
                CHANNELS 3 Zrotation Xrotation Yrotation
                JOINT lRing2
                {
                  OFFSET 2.60934 -0.819778 -0.0198488
                  CHANNELS 3 Zrotation Xrotation Yrotation
                  End Site
                  {
                    OFFSET 2.33842 -0.294052 0.168128
                  }
                }
              }
              JOINT lPinky1
              {
                OFFSET 8.27202 -0.0477905 -0.4584
                CHANNELS 3 Zrotation Xrotation Yrotation
                JOINT lPinky2
                {
                  OFFSET 1.82734 -0.647385 -0.700984
                  CHANNELS 3 Zrotation Xrotation Yrotation
                  End Site
                  {
                    OFFSET 1.69225 -0.51767 -0.607171
                  }
                }
              }
            }
          }
        }
      }
    }
  }
  JOINT rButtock
  {
    OFFSET -8.77824 4.35084 1.2192
    CHANNELS 3 Zrotation Xrotation Yrotation
    JOINT rThigh
    {
      OFFSET 0 -1.70687 -2.19456
      CHANNELS 3 Zrotation Xrotation Yrotation
      JOINT rShin
      {
        OFFSET 0 -36.8199 0.73152
        CHANNELS 3 Zrotation Xrotation Yrotation
        JOINT rFoot
        {
          OFFSET 0.73152 -45.1104 -5.12064
          CHANNELS 3 Zrotation Xrotation Yrotation
          End Site
          {
            OFFSET -1.1221 -3.69964 12.103
          }
        }
      }
    }
  }
  JOINT lButtock
  {
    OFFSET 8.77824 4.35084 1.2192
    CHANNELS 3 Zrotation Xrotation Yrotation
    JOINT lThigh
    {
      OFFSET 0 -1.70687 -2.19456
      CHANNELS 3 Zrotation Xrotation Yrotation
      JOINT lShin
      {
        OFFSET 0 -36.8199 0.73152
        CHANNELS 3 Zrotation Xrotation Yrotation
        JOINT lFoot
        {
          OFFSET -0.73152 -45.1104 -5.12064
          CHANNELS 3 Zrotation Xrotation Yrotation
          End Site
          {
            OFFSET 1.1221 -3.69964 12.103
          }
        }
      }
    }
  }
}
MOTION
Frames:	6
Frame Time:	0.00833333
-49.4497 85.0114 -177.371 0.0 0.0 0.0 0.0256063 -6.19175e-06 0.000728837 0.00706476 8.63141e-06 0.00122382 7.26537e-17 0.0 7.76503e-18 2.17421e-16 3.18055e-15 2.48481e-17 -0.0 0.0 0.0 -0.0 0.0 0.0 9.80661e-17 -5.82377e-19 1.49089e-16 3.14804e-15 2.67117e-16 9.93923e-16 1.2275e-14 1.98785e-16 2.22639e-14 1.57729e-13 2.38542e-14 -6.36111e-15 3.6822e-13 4.89943e-14 4.45278e-14 6.28955e-13 8.5875e-14 6.59965e-14 3.74113e-13 5.20816e-14 2.8625e-14 7.73091 5.47488 0.417314 3.67851e-13 4.90998e-14 4.13472e-14 2.90554 0.965183 0.102902 3.71516e-13 4.88016e-14 4.21423e-14 10.2786 0.731801 0.0259123 3.66161e-13 4.96962e-14 4.77083e-14 2.22167 -0.733487 -0.20892 1.32855e-18 -3.88251e-19 -1.49089e-16 -1.55883e-15 1.80149e-16 -7.95139e-16 1.56046e-14 5.56597e-15 -2.8625e-14 1.53586e-13 1.88845e-15 6.04305e-14 3.69283e-13 1.61947e-14 4.13472e-14 6.48833e-13 2.22639e-14 8.0309e-14 3.63776e-13 1.74931e-14 5.08889e-14 -7.73091 5.47488 -0.417314 3.68447e-13 1.64991e-14 3.81667e-14 -2.90554 0.965183 -0.102902 3.61266e-13 1.68967e-14 4.45278e-14 -10.2786 0.731801 -0.0259123 3.72125e-13 1.70955e-14 3.81667e-14 -2.22167 -0.733487 0.20892 -2.03217e-16 0.0 -3.88251e-19 0.512303 -3.13364 -0.0420886 -0.00562804 0.123099 -0.0495526 -0.492803 3.00963 0.11736 2.03217e-16 0.0 3.88251e-19 -0.473321 -3.03453 0.0397103 0.00592195 -0.0564348 0.0521747 0.492501 3.09005 -0.118955
-49.4994 83.1962 -177.783 1.7204 -6.1975 -1.4536 0.0323085 0.359535 -2.4835 0.956492 -0.89428 -0.744646 -4.74017 4.8577 1.11754 2.77245 -3.33118 2.32168 -0.0 0.0 0.0 -0.0 0.0 0.0 2.00982e-14 2.54373e-14 -6.51416e-14 20.5553 7.15149 -0.907466 -4.36831 -2.01505 6.79013 0.00431629 1.49643 0.210078 4.49779e-11 -2.38907e-10 -5.0997e-10 7.58178e-11 -4.12098e-10 -8.82572e-10 4.49835e-11 -2.38904e-10 -5.09984e-10 7.73091 5.47488 0.417314 4.49776e-11 -2.38907e-10 -5.09971e-10 2.90554 0.965183 0.102902 4.49822e-11 -2.38907e-10 -5.09972e-10 10.2786 0.731801 0.0259123 4.49767e-11 -2.38906e-10 -5.09964e-10 2.22167 -0.733487 -0.20892 2.00677e-14 2.54386e-14 -6.53955e-14 -24.6311 0.144301 3.41664 3.85208 -1.68301 -6.08757 -0.0173495 2.92603 -0.4093 -3.16882e-10 3.39087e-10 -2.30504e-10 -5.50545e-10 5.86374e-10 -3.96037e-10 -3.16888e-10 3.39089e-10 -2.30494e-10 -7.73091 5.47488 -0.417314 -3.16883e-10 3.39088e-10 -2.30506e-10 -2.90554 0.965183 -0.102902 -3.16892e-10 3.39089e-10 -2.30501e-10 -10.2786 0.731801 -0.0259123 -3.1688e-10 3.39088e-10 -2.30507e-10 -2.22167 -0.733487 0.20892 -2.03217e-16 0.0 -3.88251e-19 0.0377743 -6.50872 0.191626 -0.054702 18.0506 0.171464 -0.467282 8.17708 -0.206573 2.03217e-16 0.0 3.88251e-19 -2.16601 -8.24437 -0.410446 0.0532273 7.50796 0.0722194 0.464955 1.73913 -0.776359
-49.4896 83.2996 -176.684 1.8523 -6.3283 -1.7747 0.096703 0.712692 -5.12369 1.89267 -1.83362 -1.53895 -9.9685 10.0338 2.33814 6.04059 -6.88106 4.8193 -0.0 0.0 0.0 -0.0 0.0 0.0 4.14983e-14 5.23289e-14 -1.36845e-13 42.5687 14.7293 -1.91631 -8.48268 -4.05939 14.0137 -0.00316074 3.03909 0.427147 1.11715e-10 -5.33719e-10 -1.06156e-09 1.8914e-10 -9.20872e-10 -1.83734e-09 1.1172e-10 -5.33716e-10 -1.06157e-09 7.73091 5.47488 0.417314 1.11715e-10 -5.33719e-10 -1.06156e-09 2.90554 0.965183 0.102902 1.11721e-10 -5.33718e-10 -1.06156e-09 10.2786 0.731801 0.0259123 1.11715e-10 -5.33717e-10 -1.06155e-09 2.22167 -0.733487 -0.20892 4.15405e-14 5.23313e-14 -1.3705e-13 -50.6703 0.293315 7.05797 7.53485 -3.39687 -12.5352 0.00996785 6.00197 -0.843201 -6.37768e-10 7.38673e-10 -4.8442e-10 -1.10828e-09 1.27733e-09 -8.32631e-10 -6.37773e-10 7.38676e-10 -4.8441e-10 -7.73091 5.47488 -0.417314 -6.37768e-10 7.38675e-10 -4.84422e-10 -2.90554 0.965183 -0.102902 -6.3778e-10 7.38675e-10 -4.84417e-10 -10.2786 0.731801 -0.0259123 -6.37768e-10 7.38674e-10 -4.84424e-10 -2.22167 -0.733487 0.20892 -2.03217e-16 0.0 -3.88251e-19 -0.410209 -10.0093 0.44646 -0.288381 36.9454 0.484162 -0.380695 13.7173 -0.506629 2.03217e-16 0.0 3.88251e-19 -4.02484 -13.7986 -0.904575 0.097749 15.4987 0.0970013 0.401555 0.353918 -1.49533
-49.4229 83.3489 -175.773 2.0232 -6.0074 -1.9182 0.138967 1.07051 -7.45311 2.78545 -2.68104 -2.23856 -14.8047 14.5506 3.4514 9.13549 -9.92744 7.0595 -0.0 0.0 0.0 -0.0 0.0 0.0 6.00986e-14 7.63132e-14 -1.95723e-13 62.388 21.4321 -2.90204 -11.6997 -5.70626 20.4636 -0.0200571 4.48904 0.631958 1.34197e-10 -7.16818e-10 -1.53e-09 2.26196e-10 -1.23646e-09 -2.64785e-09 1.34202e-10 -7.16816e-10 -1.53001e-09 7.73091 5.47488 0.417314 1.34197e-10 -7.16819e-10 -1.53e-09 2.90554 0.965183 0.102902 1.34204e-10 -7.16817e-10 -1.53e-09 10.2786 0.731801 0.0259123 1.34198e-10 -7.16817e-10 -1.52999e-09 2.22167 -0.733487 -0.20892 6.02004e-14 7.63167e-14 -1.95888e-13 -73.9445 0.426754 10.2502 10.5003 -4.82147 -18.3219 0.0746211 8.77629 -1.24083 -9.51385e-10 1.01723e-09 -6.91594e-10 -1.65293e-09 1.75908e-09 -1.18827e-09 -9.5139e-10 1.01723e-09 -6.91584e-10 -7.73091 5.47488 -0.417314 -9.51385e-10 1.01723e-09 -6.91595e-10 -2.90554 0.965183 -0.102902 -9.51398e-10 1.01723e-09 -6.91591e-10 -10.2786 0.731801 -0.0259123 -9.51386e-10 1.01723e-09 -6.91598e-10 -2.22167 -0.733487 0.20892 -2.03217e-16 0.0 -3.88251e-19 -0.826661 -13.2581 0.673165 -0.79995 53.9016 0.998349 -0.232846 18.51 -0.89407 2.03217e-16 0.0 3.88251e-19 -5.809 -18.6597 -1.36994 0.130191 22.6367 0.11967 0.316894 -0.961611 -2.09073
-49.3915 83.3219 -175.005 2.0116 -5.7029 -2.0248 0.0693992 1.44667 -9.00486 3.61919 -3.30045 -2.6994 -18.2225 17.4421 4.19543 11.1887 -11.7823 8.55873 -0.0 0.0 0.0 -0.0 0.0 0.0 7.16995e-14 9.30293e-14 -2.22539e-13 76.1915 25.969 -3.65618 -13.668 -6.68977 24.8887 -0.0401191 5.70742 0.804816 4.60417e-11 -6.20638e-10 -1.79056e-09 7.2587e-11 -1.06911e-09 -3.09771e-09 4.60465e-11 -6.20637e-10 -1.79057e-09 7.73091 5.47488 0.417314 4.60416e-11 -6.20639e-10 -1.79056e-09 2.90554 0.965183 0.102902 4.60484e-11 -6.20637e-10 -1.79056e-09 10.2786 0.731801 0.0259123 4.60423e-11 -6.20637e-10 -1.79055e-09 2.22167 -0.733487 -0.20892 7.18278e-14 9.30339e-14 -2.22689e-13 -90.2706 0.52718 12.3194 12.4071 -5.7382 -22.4005 0.145178 10.7982 -1.536 -1.24683e-09 9.93211e-10 -7.81911e-10 -2.16488e-09 1.71783e-09 -1.34152e-09 -1.24683e-09 9.93215e-10 -7.81901e-10 -7.73091 5.47488 -0.417314 -1.24683e-09 9.93214e-10 -7.81911e-10 -2.90554 0.965183 -0.102902 -1.24684e-09 9.93215e-10 -7.81908e-10 -10.2786 0.731801 -0.0259123 -1.24683e-09 9.93213e-10 -7.81914e-10 -2.22167 -0.733487 0.20892 -2.03217e-16 0.0 -3.88251e-19 -1.22402 -15.878 0.817691 -1.6364 66.0136 1.80264 -0.0225907 21.4341 -1.47533 2.03217e-16 0.0 3.88251e-19 -7.21524 -21.7921 -1.70741 0.14744 27.6431 0.130029 0.246247 -2.10433 -2.37675
-49.4168 83.3079 -174.156 1.9196 -5.7714 -2.2218 -0.162033 1.88431 -9.638 4.40276 -3.59219 -2.87513 -19.4909 18.0832 4.36624 11.4913 -12.0197 8.97898 -0.0 0.0 0.0 -0.0 0.0 0.0 7.34631e-14 1.01657e-13 -1.92874e-13 81.2401 27.5467 -3.9261 -14.2821 -6.95621 26.3918 -0.0569007 6.66759 0.941456 -2.68656e-10 2.18966e-11 -1.7446e-09 -4.71837e-10 4.32497e-11 -3.01519e-09 -2.68652e-10 2.1898e-11 -1.74461e-09 7.73091 5.47488 0.417314 -2.68656e-10 2.18959e-11 -1.7446e-09 2.90554 0.965183 0.102902 -2.68651e-10 2.18971e-11 -1.7446e-09 10.2786 0.731801 0.0259123 -2.68656e-10 2.18978e-11 -1.74459e-09 2.22167 -0.733487 -0.20892 7.35639e-14 1.01663e-13 -1.93049e-13 -96.8876 0.495516 12.8234 13.1381 -6.08988 -24.047 0.184905 11.7963 -1.68344 -1.59076e-09 4.13531e-10 -6.6989e-10 -2.75843e-09 7.1638e-10 -1.14351e-09 -1.59076e-09 4.13534e-10 -6.69882e-10 -7.73091 5.47488 -0.417314 -1.59075e-09 4.13534e-10 -6.69888e-10 -2.90554 0.965183 -0.102902 -1.59077e-09 4.13535e-10 -6.69887e-10 -10.2786 0.731801 -0.0259123 -1.59076e-09 4.13533e-10 -6.69892e-10 -2.22167 -0.733487 0.20892 -2.03217e-16 0.0 -3.88251e-19 -1.70637 -17.5242 0.6627 -2.35863 71.393 2.50231 0.220454 21.6863 -2.36731 2.03217e-16 0.0 3.88251e-19 -8.07905 -22.4222 -1.97564 0.150979 29.6341 0.120788 0.226854 -3.00492 -2.2493
